<svg width="414" height="414" viewBox="0 0 414 414" fill="none" xmlns="http://www.w3.org/2000/svg">
<path d="M0 126C0 56.4121 56.4121 0 126 0H288C357.588 0 414 56.4121 414 126V288C414 357.588 357.588 414 288 414H126C56.4121 414 0 357.588 0 288V126Z" fill="#3C4EB2"/>
<path d="M362.829 89.4489C361.187 106.693 346.717 120.273 329.404 120.968C326.498 121.094 323.718 120.842 321.001 120.273C307.289 117.494 296.485 106.693 293.705 92.9861C293.199 90.5227 292.946 87.9329 293.01 85.28C293.325 67.7202 306.974 52.8764 324.476 51.171C346.528 49.0234 364.978 67.4044 362.829 89.4489Z" fill="white"/>
<path d="M335.998 211.754C333.526 280.787 276.714 336 207.031 336C135.826 336 77.9366 278.061 78 206.873C78.0634 135.686 135.826 78 207.031 78C236.071 78 262.828 87.572 284.386 103.737C293.77 110.773 302.14 119.014 309.241 128.269C310.573 129.98 310.446 132.453 308.924 133.974L283.689 159.203L249.957 192.927L212.103 230.771C211.533 231.342 210.835 231.596 210.074 231.596H163.471C160.935 231.596 159.603 228.489 161.442 226.651L195.237 192.864L256.614 131.502C242.411 122.12 225.355 116.668 207.094 116.668C171.016 116.668 139.821 137.904 125.364 168.522C119.848 180.186 116.741 193.244 116.741 207V207.254C116.868 256.952 157.321 297.332 207.094 297.332C255.473 297.332 295.038 259.171 297.321 211.374C297.448 209.092 299.35 207.317 301.632 207.317H331.75C334.16 207.254 336.062 209.282 335.998 211.754Z" fill="white"/>
</svg>
